# xmcd
#
# Track frame offsets:
#	150
#	21063
#	37521
#	52690
#	70427
#	90096
#	107674
#	127210
#	144018
#	160922
#
# Disc length: 2433 seconds
#
# Revision: 1
# Processed by: cddbd v1.5.1PL0 Copyright (c) Steve Scherf et al.
# Submitted via: EasyCDDAExtractor 7.0.6.1
#
DISCID=6e097f0a
DTITLE=Negros
DYEAR=2003
DGENRE=Pop
TTITLE0=Mi Reina
TTITLE1=Muchachita de Campo
TTITLE2=Lo Que Dejaste
TTITLE3=Tu Ausencia
TTITLE4=Contigo En La Cabeza
TTITLE5=Ven
TTITLE6=Me Caso Con Ella
TTITLE7=Se Me Va La Vida
TTITLE8=La Cosa Prieta
TTITLE9=Me Cambiaste La Vida
EXTD=
EXTT0=
EXTT1=
EXTT2=
EXTT3=
EXTT4=
EXTT5=
EXTT6=
EXTT7=
EXTT8=
EXTT9=
PLAYORDER=
